<?xml version="1.0" standalone="no"?>
<!DOCTYPE svg PUBLIC "-//W3C//DTD SVG 1.0//EN" "http://www.w3.org/TR/2001/REC-SVG-20010904/DTD/svg10.dtd">
<svg xmlns="http://www.w3.org/2000/svg" xmlns:xlink="http://www.w3.org/1999/xlink" id="body_1" width="104" height="37">

<g transform="matrix(0.4482759 0 0 0.4512195 0 0)">
	<g transform="matrix(0.5985402 0 0 0.5985402 0.1824773 -0)">
        <path d="M78.7435 84.2322C 78.7435 85.4609 78.5259 86.7792 78.0908 88.1871C 77.6812 89.5949 76.9901 90.9004 76.0174 92.1035C 75.0702 93.3066 73.8287 94.3177 72.2929 95.1369C 70.757 95.9304 68.8756 96.3271 66.6486 96.3271L66.6486 96.3271L28.7511 96.3271C 28.0343 96.3271 27.3688 96.1992 26.7544 95.9432C 26.1401 95.6872 25.6025 95.3416 25.1418 94.9065C 24.7066 94.4457 24.361 93.9082 24.1051 93.2938C 23.8491 92.6795 23.7211 92.0139 23.7211 91.2972L23.7211 91.2972L23.7211 46.2963C 23.7211 45.6052 23.8491 44.9524 24.1051 44.3381C 24.361 43.7237 24.7066 43.1862 25.1418 42.7254C 25.6025 42.2647 26.1401 41.9063 26.7544 41.6503C 27.3688 41.3943 28.0343 41.2663 28.7511 41.2663L28.7511 41.2663L62.1562 41.2663C 63.3849 41.2663 64.7031 41.4839 66.111 41.9191C 67.5189 42.3542 68.8244 43.0582 70.0275 44.0309C 71.2562 44.978 72.2673 46.2195 73.0608 47.7554C 73.8799 49.2912 74.2895 51.1727 74.2895 53.3997L74.2895 53.3997L74.2895 55.2811C 74.2895 57.0474 73.9951 58.9544 73.4064 61.0022C 72.8176 63.0244 71.8705 64.9443 70.565 66.7617C 71.6913 67.4529 72.7408 68.2848 73.7136 69.2575C 74.7119 70.2302 75.5822 71.3565 76.3245 72.6364C 77.0669 73.9163 77.6556 75.3626 78.0908 76.9752C 78.5259 78.5879 78.7435 80.3669 78.7435 82.3124L78.7435 82.3124L78.7435 84.2322zM68.7604 82.3124C 68.7604 81.0069 68.5556 79.8422 68.146 78.8183C 67.7365 77.7688 67.1605 76.8728 66.4182 76.1305C 65.6759 75.3882 64.7799 74.825 63.7304 74.4411C 62.6809 74.0315 61.5034 73.8267 60.1979 73.8267L60.1979 73.8267L37.6975 73.8267L37.6975 63.7668L55.7055 63.7668C 57.011 63.7668 58.1885 63.5748 59.238 63.1908C 60.2875 62.7813 61.1834 62.2053 61.9258 61.463C 62.6681 60.7206 63.2313 59.8375 63.6152 58.8136C 64.0248 57.7641 64.2296 56.5866 64.2296 55.2811L64.2296 55.2811L64.2296 53.3997C 64.2296 51.9662 63.5384 51.2495 62.1562 51.2495L62.1562 51.2495L33.7042 51.2495L33.7042 86.344L66.6486 86.344C 66.8278 86.344 67.0453 86.3312 67.3013 86.3056C 67.5573 86.28 67.7877 86.2032 67.9925 86.0752C 68.1972 85.9473 68.3764 85.7297 68.53 85.4225C 68.6836 85.1153 68.7604 84.693 68.7604 84.1554L68.7604 84.1554L68.7604 82.3124zM104.584 96.3271L100.13 96.3271C 98.697 96.3271 97.1611 96.084 95.5229 95.5976C 93.9102 95.1113 92.3999 94.3177 90.9921 93.217C 89.5842 92.0907 88.4195 90.6444 87.498 88.8782C 86.5764 87.0864 86.1157 84.8977 86.1157 82.3124L86.1157 82.3124L86.1157 37.2731L96.0988 37.2731L96.0988 82.3124C 96.0988 83.5411 96.4828 84.5266 97.2507 85.2689C 98.0186 85.9856 98.9786 86.344 100.13 86.344L100.13 86.344L104.584 86.344L104.584 96.3271zM156.151 82.3124C 156.151 84.0274 155.934 85.5761 155.498 86.9584C 155.063 88.315 154.487 89.5181 153.771 90.5676C 153.054 91.5916 152.222 92.4747 151.275 93.217C 150.328 93.9338 149.329 94.5225 148.28 94.9833C 147.256 95.444 146.206 95.7896 145.131 96.02C 144.082 96.2248 143.084 96.3271 142.136 96.3271L142.136 96.3271L124.128 96.3271C 122.746 96.3271 121.236 96.084 119.598 95.5976C 117.959 95.1113 116.436 94.3177 115.028 93.217C 113.646 92.0907 112.481 90.6444 111.534 88.8782C 110.613 87.0864 110.152 84.8977 110.152 82.3124L110.152 82.3124L110.152 68.7967C 110.152 66.237 110.613 64.074 111.534 62.3077C 112.481 60.5159 113.646 59.0696 115.028 57.9689C 116.436 56.8426 117.959 56.0363 119.598 55.5499C 121.236 55.0635 122.746 54.8204 124.128 54.8204L124.128 54.8204L142.136 54.8204C 144.696 54.8204 146.872 55.2811 148.664 56.2026C 150.456 57.1242 151.902 58.2889 153.003 59.6967C 154.103 61.079 154.897 62.5893 155.383 64.2275C 155.895 65.8658 156.151 67.3889 156.151 68.7967L156.151 68.7967L156.151 82.3124zM146.168 68.8735C 146.168 67.4913 145.822 66.4673 145.131 65.8018C 144.44 65.1363 143.442 64.8035 142.136 64.8035L142.136 64.8035L124.205 64.8035C 122.874 64.8035 121.863 65.1491 121.172 65.8402C 120.481 66.5057 120.135 67.4913 120.135 68.7967L120.135 68.7967L120.135 82.3124C 120.135 83.6179 120.481 84.6162 121.172 85.3073C 121.863 85.9984 122.874 86.344 124.205 86.344L124.205 86.344L142.136 86.344C 143.493 86.344 144.504 85.9984 145.17 85.3073C 145.835 84.6162 146.168 83.6179 146.168 82.3124L146.168 82.3124L146.168 68.8735zM204.877 96.3271L177.807 96.3271C 176.425 96.3271 174.914 96.084 173.276 95.5976C 171.638 95.1113 170.115 94.3177 168.707 93.217C 167.325 92.0907 166.16 90.6444 165.213 88.8782C 164.291 87.0864 163.831 84.8977 163.831 82.3124L163.831 82.3124L163.831 68.7967C 163.831 67.8496 163.933 66.8513 164.138 65.8018C 164.368 64.7523 164.714 63.7156 165.174 62.6917C 165.635 61.6422 166.224 60.6439 166.941 59.6967C 167.683 58.7496 168.566 57.9177 169.59 57.201C 170.64 56.4842 171.843 55.9083 173.199 55.4731C 174.556 55.0379 176.092 54.8204 177.807 54.8204L177.807 54.8204L204.877 54.8204L204.877 64.8035L177.807 64.8035C 176.501 64.8035 175.503 65.1363 174.812 65.8018C 174.146 66.4673 173.814 67.4913 173.814 68.8735L173.814 68.8735L173.814 82.3124C 173.814 83.6179 174.159 84.6162 174.85 85.3073C 175.541 85.9984 176.553 86.344 177.884 86.344L177.884 86.344L204.877 86.344L204.877 96.3271zM261.896 96.3271L247.497 96.3271L227.377 76.8984C 226.251 75.8745 225.726 74.5946 225.803 73.0588C 225.854 72.342 226.033 71.6765 226.34 71.0621C 226.673 70.4222 227.121 69.8846 227.684 69.4495L227.684 69.4495L245.923 54.7436L261.896 54.7436L238.397 73.6731L261.896 96.3271zM223.269 96.3271L213.285 96.3271L213.285 37.2731L223.269 37.2731L223.269 96.3271z" stroke="none" fill="#166DFF" fill-rule="nonzero" />
        <path d="M343.449 20L363.525 20C 365.307 20 366.199 22.1543 364.939 23.4142L364.939 23.4142L319.44 68.9129C 318.659 69.694 318.659 70.9603 319.44 71.7414L319.44 71.7414L364.939 117.24C 366.199 118.5 365.307 120.654 363.525 120.654L363.525 120.654L343.449 120.654C 342.388 120.654 341.37 120.233 340.62 119.483L340.62 119.483L294.293 73.1556C 292.731 71.5935 292.731 69.0608 294.293 67.4987L294.293 67.4987L340.62 21.1716C 341.37 20.4214 342.388 20 343.449 20z" stroke="none" fill="#166DFF" fill-rule="nonzero" />
        <path d="M304.38 54.5838L294.733 44.9372C 293.983 44.1871 292.965 43.7656 291.904 43.7656L291.904 43.7656L271.828 43.7656C 270.046 43.7656 269.154 45.9199 270.414 47.1798L270.414 47.1798L291.489 68.2549C 291.78 67.4631 292.243 66.7202 292.879 66.0845L292.879 66.0845L304.38 54.5838z" stroke="none" fill="#000000" fill-rule="nonzero" />
        <path d="M291.489 72.3994C 291.78 73.1913 292.243 73.9341 292.879 74.5698L292.879 74.5698L304.38 86.0705L294.733 95.7172C 293.983 96.4673 292.965 96.8887 291.904 96.8887L291.904 96.8887L271.828 96.8887C 270.046 96.8887 269.154 94.7344 270.414 93.4745L270.414 93.4745L291.489 72.3994z" stroke="none" fill="#000000" fill-rule="nonzero" />
	</g>
</g>
</svg>